<?xml version="1.0" encoding="UTF-8"?>
<svg id="orinateurs" xmlns="http://www.w3.org/2000/svg" viewBox="0 0 104 147.89">
  <defs>
    <style>
      .cls-1 {
        fill: #fff;
      }

      .cls-2 {
        fill: #ccff26;
      }
    </style>
  </defs>
  <g>
    <path class="cls-1" d="M46.55,123.64c-3.19,3.7-7.82,5.66-13.89,5.89-1.24.05-3.26.07-6.06.07s-4.92-.02-6.2-.07c-5.97-.23-10.58-2.23-13.82-6-3.24-3.77-4.86-8.87-4.86-15.3,0-4.04.68-7.67,2.03-10.89,1.36-3.22,3.29-5.75,5.79-7.62,2.5-1.86,5.43-2.81,8.79-2.86h.14c.37,0,.68.15.93.45.25.3.38.63.38,1v9.3c0,.6-.13,1.06-.38,1.38-.25.32-.72.6-1.41.83-2.34.64-3.99,1.65-4.93,3.03-.94,1.38-1.41,3.19-1.41,5.44,0,5.42,3.03,8.22,9.1,8.41,1.24.05,3.15.07,5.72.07s4.53-.02,5.86-.07c6.06-.18,9.1-2.99,9.1-8.41,0-2.25-.49-4.09-1.48-5.51-.99-1.42-2.61-2.41-4.86-2.96-.69-.18-1.16-.44-1.41-.76-.25-.32-.38-.8-.38-1.45v-9.3c0-.41.14-.77.41-1.07.28-.3.62-.42,1.03-.38,3.35.05,6.28,1,8.79,2.86,2.5,1.86,4.43,4.4,5.79,7.62,1.35,3.22,2.03,6.85,2.03,10.89,0,6.57-1.6,11.7-4.79,15.4Z"/>
    <path class="cls-1" d="M50.14,79.88c-.34.34-.75.52-1.21.52H3.45c-.51,0-.92-.17-1.24-.52-.32-.34-.48-.75-.48-1.21v-8.13c0-.5.16-.92.48-1.24.32-.32.74-.48,1.24-.48h45.49c.51,0,.92.16,1.24.48.32.32.48.74.48,1.24v8.13c0,.46-.17.86-.52,1.21Z"/>
    <path class="cls-1" d="M9.17,60.27c-.32.32-.73.48-1.24.48H1.72c-.5,0-.92-.16-1.24-.48-.32-.32-.48-.73-.48-1.24v-8.27c0-.51.16-.92.48-1.24.32-.32.74-.48,1.24-.48h6.2c.51,0,.92.16,1.24.48.32.32.48.74.48,1.24v8.27c0,.51-.16.92-.48,1.24ZM50.17,60.21c-.32.32-.73.48-1.24.48H16.54c-.51,0-.92-.16-1.24-.48-.32-.32-.48-.73-.48-1.24v-8.13c0-.5.16-.92.48-1.24.32-.32.74-.48,1.24-.48h32.39c.46,0,.86.16,1.21.48.34.32.52.74.52,1.24v8.13c0,.51-.16.92-.48,1.24Z"/>
    <path class="cls-1" d="M50.14,40.46c-.34.34-.75.52-1.21.52H3.45c-.51,0-.92-.17-1.24-.52-.32-.34-.48-.75-.48-1.21v-7.99c0-.51.16-.92.48-1.24.32-.32.74-.48,1.24-.48h23.09l-10.54-9.58c-.09-.09-.25-.26-.48-.52-.23-.25-.4-.52-.52-.79-.11-.28-.17-.6-.17-.96v-9.24c0-.41.15-.77.45-1.07.3-.3.65-.45,1.07-.45.51,0,.9.18,1.17.55l13.37,12.4,17.16-14.13c.37-.37.71-.55,1.03-.55.46,0,.84.15,1.14.45.3.3.45.68.45,1.14v9.44c0,.6-.09,1.05-.28,1.34-.18.3-.48.65-.9,1.07l-13.09,10.89h12.54c.46,0,.86.16,1.21.48.34.32.52.74.52,1.24v7.99c0,.46-.17.86-.52,1.21Z"/>
    <path class="cls-1" d="M59.17,5.96c3.19-3.7,7.82-5.66,13.89-5.89,1.24-.05,3.26-.07,6.06-.07s4.92.02,6.2.07c5.97.23,10.58,2.23,13.82,6,3.24,3.77,4.86,8.87,4.86,15.3,0,4.04-.68,7.67-2.03,10.89-1.36,3.21-3.29,5.75-5.79,7.62-2.5,1.86-5.43,2.81-8.79,2.86h-.14c-.37,0-.68-.15-.93-.45-.25-.3-.38-.63-.38-1v-9.3c0-.6.13-1.06.38-1.38.25-.32.72-.6,1.41-.83,2.34-.64,3.99-1.65,4.93-3.03.94-1.38,1.41-3.19,1.41-5.44,0-5.42-3.03-8.22-9.1-8.41-1.24-.05-3.15-.07-5.72-.07s-4.53.02-5.86.07c-6.06.18-9.1,2.99-9.1,8.41,0,2.25.49,4.09,1.48,5.51.99,1.42,2.61,2.41,4.86,2.96.69.18,1.16.44,1.41.76.25.32.38.8.38,1.45v9.3c0,.41-.14.77-.41,1.07-.28.3-.62.42-1.03.38-3.35-.05-6.28-1-8.79-2.86-2.5-1.86-4.43-4.4-5.79-7.62-1.35-3.22-2.03-6.85-2.03-10.89,0-6.57,1.6-11.71,4.79-15.4Z"/>
    <path class="cls-1" d="M55.58,49.72c.34-.34.75-.52,1.21-.52h45.49c.51,0,.92.17,1.24.52.32.34.48.75.48,1.21v8.13c0,.51-.16.92-.48,1.24-.32.32-.74.48-1.24.48h-45.49c-.51,0-.92-.16-1.24-.48-.32-.32-.48-.74-.48-1.24v-8.13c0-.46.17-.86.52-1.21Z"/>
    <path class="cls-1" d="M55.79,73.02c.94-2,2.23-3.56,3.86-4.69,1.63-1.13,3.43-1.69,5.41-1.69,3.17,0,5.72,1.3,7.65,3.89,1.93,2.6,3.26,6.17,4,10.72l1.31,8.61h.96c1.75,0,3.03-.37,3.86-1.1.83-.74,1.24-1.98,1.24-3.72,0-1.06-.18-1.93-.55-2.62-.37-.69-.87-1.4-1.52-2.14-.55-.64-.92-1.13-1.1-1.45-.37-.14-.55-.39-.55-.76v-7.51c0-.46.15-.84.45-1.14.3-.3.65-.43,1.07-.38,1.24.05,2.62.66,4.14,1.83,1.52,1.17,2.83,2.96,3.93,5.38,1.1,2.41,1.65,5.39,1.65,8.92,0,5.65-1.25,9.83-3.76,12.54-2.5,2.71-5.87,4.07-10.1,4.07h-20.95c-.46,0-.86-.16-1.21-.48-.34-.32-.52-.74-.52-1.24v-7.99c0-.46.17-.86.52-1.21.34-.34.75-.52,1.21-.52h2.41c-1.42-1.01-2.58-2.42-3.48-4.24-.9-1.82-1.34-3.96-1.34-6.44s.47-4.65,1.41-6.65ZM64.3,88.04c1.38,1.31,3.4,1.96,6.06,1.96h.96l-1.03-5.86c-.74-4.14-2.18-6.2-4.34-6.2-1.15,0-2.06.48-2.72,1.45-.67.96-1,2.14-1,3.51,0,2.11.69,3.83,2.07,5.13Z"/>
    <path class="cls-1" d="M55.58,110.09c.34-.34.75-.52,1.21-.52h45.49c.51,0,.92.17,1.24.52.32.34.48.75.48,1.21v7.99c0,.5-.16.92-.48,1.24-.32.32-.74.48-1.24.48h-23.09l10.54,9.58c.09.09.25.26.48.52.23.25.4.52.52.79.11.28.17.6.17.96v9.24c0,.41-.15.77-.45,1.07-.3.3-.65.45-1.07.45-.51,0-.9-.18-1.17-.55l-13.37-12.41-17.16,14.13c-.37.37-.71.55-1.03.55-.46,0-.84-.15-1.14-.45-.3-.3-.45-.68-.45-1.14v-9.44c0-.6.09-1.05.28-1.34.18-.3.48-.66.9-1.07l13.09-10.89h-12.54c-.46,0-.86-.16-1.21-.48-.34-.32-.52-.74-.52-1.24v-7.99c0-.46.17-.86.52-1.21Z"/>
  </g>
  <g>
    <path class="cls-2" d="M5.71,145.25c-.06-.06-.09-.14-.09-.24v-6.3c0-.1.03-.18.09-.24s.14-.09.24-.09h1.54c.1,0,.18.03.25.1.07.07.1.15.1.23v.54c.49-.58,1.15-.87,1.98-.87h.59c.1,0,.18.03.24.09s.09.14.09.24v1.38c0,.09-.03.17-.09.23s-.14.1-.24.1h-1.3c-.37,0-.65.1-.85.3s-.3.48-.3.85v3.43c0,.1-.03.18-.1.24-.07.06-.15.09-.25.09h-1.66c-.1,0-.18-.03-.24-.09Z"/>
    <path class="cls-2" d="M12.31,144.61c-.62-.58-.94-1.42-.96-2.53v-.47c.04-1.05.36-1.88.98-2.47.62-.59,1.45-.89,2.5-.89.76,0,1.4.15,1.92.46.52.31.92.73,1.18,1.27.26.54.4,1.15.4,1.85v.32c0,.09-.03.17-.09.23-.06.07-.14.1-.24.1h-4.29v.09c.02.42.12.76.31,1.02.19.26.46.39.82.39.22,0,.41-.05.55-.14.14-.09.27-.21.39-.34.08-.1.15-.16.19-.18.05-.02.13-.03.23-.03h1.66c.08,0,.15.02.21.07.06.05.09.11.09.19,0,.23-.13.5-.4.8-.26.3-.65.57-1.15.79-.5.22-1.09.34-1.77.34-1.07,0-1.92-.29-2.53-.87ZM15.97,141.15v-.03c0-.44-.1-.78-.3-1.04-.2-.25-.48-.38-.84-.38s-.62.13-.82.38c-.2.25-.3.6-.3,1.04v.03h2.26Z"/>
    <path class="cls-2" d="M19.69,147.8c-.07-.06-.1-.14-.1-.24v-8.84c0-.1.03-.18.1-.24.07-.06.15-.09.23-.09h1.51c.1,0,.18.03.24.09s.09.14.09.24v.48c.48-.63,1.17-.95,2.08-.95s1.56.27,2.05.82c.49.55.76,1.31.8,2.3,0,.12.01.28.01.5s0,.38-.01.5c-.04.96-.3,1.73-.8,2.28s-1.18.84-2.05.84-1.53-.3-1.96-.9v2.97c0,.1-.03.18-.09.24-.06.06-.14.09-.24.09h-1.63c-.09,0-.17-.03-.23-.09ZM24.03,143.31c.18-.25.29-.59.31-1.03.02-.18.03-.32.03-.42s0-.24-.03-.42c-.03-.44-.13-.78-.31-1.03-.18-.25-.48-.37-.9-.37s-.71.13-.9.38c-.19.25-.3.58-.33.98v.5s0,.51,0,.51c.02.37.13.67.34.91.21.24.5.36.9.36.42,0,.72-.12.9-.37Z"/>
    <path class="cls-2" d="M28.84,145.2c-.39-.18-.69-.43-.91-.75-.22-.32-.33-.67-.33-1.05,0-.62.25-1.11.76-1.49s1.2-.63,2.08-.78l1.68-.25v-.19c0-.34-.07-.59-.21-.75s-.38-.24-.72-.24c-.21,0-.38.04-.51.11-.13.07-.27.17-.42.29-.13.11-.22.18-.28.21-.03.07-.08.11-.15.11h-1.46c-.09,0-.16-.03-.22-.09-.06-.06-.08-.13-.07-.21,0-.24.13-.51.36-.8s.58-.55,1.05-.76c.47-.21,1.05-.32,1.73-.32,1.1,0,1.91.24,2.44.73s.79,1.14.79,1.96v4.07c0,.09-.03.17-.09.23-.06.07-.14.1-.24.1h-1.55c-.09,0-.17-.03-.23-.1-.07-.07-.1-.14-.1-.23v-.47c-.2.28-.47.5-.82.68-.35.17-.77.26-1.25.26s-.9-.09-1.29-.27ZM31.76,143.55c.25-.27.38-.66.38-1.18v-.19l-1.14.2c-.8.14-1.21.42-1.21.84,0,.22.09.4.28.53.19.13.42.19.68.19.41,0,.74-.13,1-.4Z"/>
    <path class="cls-2" d="M36.03,137.28c-.06-.06-.09-.14-.09-.24v-1.21c0-.1.03-.18.09-.24s.14-.09.24-.09h1.61c.1,0,.18.03.24.09s.09.14.09.24v1.21c0,.1-.03.18-.09.24s-.14.09-.24.09h-1.61c-.1,0-.18-.03-.24-.09ZM36.04,145.25c-.06-.06-.09-.14-.09-.24v-6.3c0-.1.03-.18.09-.24s.14-.09.24-.09h1.58c.1,0,.18.03.24.09.06.06.09.14.09.24v6.3c0,.09-.03.17-.09.23-.06.07-.14.1-.24.1h-1.58c-.1,0-.18-.03-.24-.09Z"/>
    <path class="cls-2" d="M39.88,145.25c-.06-.06-.09-.14-.09-.24v-6.3c0-.1.03-.18.09-.24s.14-.09.24-.09h1.54c.1,0,.18.03.25.1.07.07.1.15.1.23v.54c.49-.58,1.15-.87,1.98-.87h.59c.1,0,.18.03.24.09s.09.14.09.24v1.38c0,.09-.03.17-.09.23s-.14.1-.24.1h-1.3c-.37,0-.65.1-.85.3s-.3.48-.3.85v3.43c0,.1-.03.18-.1.24-.07.06-.15.09-.25.09h-1.66c-.1,0-.18-.03-.24-.09Z"/>
  </g>
</svg>