<?xml version="1.0" encoding="UTF-8"?>
<svg id="orinateurs" xmlns="http://www.w3.org/2000/svg" viewBox="0 0 191.17 30.69">
  <defs>
    <style>
      .cls-1 {
        fill: #fff;
      }

      .cls-2 {
        fill: #cf3;
      }
    </style>
  </defs>
  <g>
    <path class="cls-2" d="M158.33,28.48c-.05-.05-.08-.12-.08-.2v-5.27c0-.08.03-.15.08-.2.05-.05.12-.08.2-.08h1.29c.08,0,.15.03.21.08.06.06.08.12.08.2v.45c.41-.49.96-.73,1.66-.73h.49c.08,0,.15.03.2.08.05.05.08.12.08.2v1.16c0,.07-.03.14-.08.2-.05.06-.12.08-.2.08h-1.09c-.31,0-.54.08-.71.25s-.25.41-.25.71v2.87c0,.08-.03.15-.08.2-.06.05-.12.08-.21.08h-1.39c-.08,0-.15-.03-.2-.08Z"/>
    <path class="cls-2" d="M163.87,27.94c-.52-.49-.79-1.19-.81-2.12v-.39c.03-.88.3-1.57.82-2.07.52-.5,1.22-.75,2.09-.75.64,0,1.17.13,1.61.39.44.26.77.61.99,1.06.22.45.33.96.33,1.55v.27c0,.07-.03.14-.08.2-.05.06-.12.08-.2.08h-3.59v.08c.02.35.1.64.26.85.16.22.38.33.68.33.19,0,.34-.04.46-.12.12-.08.23-.17.33-.29.07-.08.12-.13.16-.15s.11-.03.2-.03h1.39c.07,0,.12.02.17.06s.07.09.07.16c0,.2-.11.42-.33.67-.22.25-.54.47-.96.66-.42.19-.91.28-1.48.28-.9,0-1.6-.24-2.12-.73ZM166.93,25.05v-.02c0-.37-.08-.66-.25-.87-.17-.21-.4-.32-.7-.32s-.52.11-.69.32c-.17.21-.25.5-.25.87v.02h1.9Z"/>
    <path class="cls-2" d="M170.04,30.61c-.06-.05-.08-.12-.08-.2v-7.41c0-.08.03-.15.08-.2.06-.05.12-.08.2-.08h1.27c.08,0,.15.03.2.08.05.05.08.12.08.2v.4c.4-.53.98-.8,1.74-.8s1.31.23,1.72.68c.41.46.64,1.1.67,1.93,0,.1.01.24.01.42s0,.32-.01.42c-.03.81-.25,1.45-.67,1.91-.42.47-.99.7-1.72.7s-1.28-.25-1.64-.75v2.49c0,.08-.03.15-.08.2-.05.05-.12.08-.2.08h-1.37c-.08,0-.14-.03-.2-.08ZM173.68,26.85c.15-.21.24-.5.26-.86.01-.15.02-.27.02-.35s0-.2-.02-.35c-.02-.37-.11-.65-.26-.86-.15-.21-.41-.31-.76-.31s-.6.11-.76.32c-.16.21-.25.49-.27.83v.42s0,.43,0,.43c.01.31.11.56.28.76s.42.3.75.3c.35,0,.6-.1.76-.31Z"/>
    <path class="cls-2" d="M177.71,28.44c-.32-.15-.58-.36-.76-.63-.18-.27-.28-.56-.28-.88,0-.52.21-.93.63-1.25.42-.31,1-.53,1.75-.65l1.4-.21v-.16c0-.28-.06-.49-.18-.63s-.32-.2-.61-.2c-.17,0-.31.03-.43.09-.11.06-.23.14-.35.25-.1.09-.18.15-.24.18-.02.06-.06.09-.12.09h-1.22c-.07,0-.14-.02-.18-.07s-.07-.11-.06-.17c0-.2.11-.43.3-.67.19-.25.48-.46.88-.64.39-.18.88-.27,1.45-.27.92,0,1.6.2,2.04.61.44.41.66.96.66,1.64v3.41c0,.07-.03.14-.08.2-.05.06-.12.08-.2.08h-1.3c-.08,0-.14-.03-.2-.08-.05-.06-.08-.12-.08-.2v-.39c-.16.23-.39.42-.69.57-.3.15-.65.22-1.05.22s-.76-.08-1.08-.23ZM180.16,27.05c.21-.22.32-.55.32-.99v-.16l-.95.17c-.67.12-1.01.35-1.01.71,0,.19.08.33.24.44.16.11.35.16.57.16.34,0,.62-.11.84-.34Z"/>
    <path class="cls-2" d="M183.73,21.8c-.05-.05-.08-.12-.08-.2v-1.01c0-.08.03-.15.08-.2.05-.05.12-.08.2-.08h1.35c.08,0,.15.03.2.08.05.05.08.12.08.2v1.01c0,.08-.03.15-.08.2-.05.05-.12.08-.2.08h-1.35c-.08,0-.15-.03-.2-.08ZM183.74,28.48c-.05-.05-.08-.12-.08-.2v-5.27c0-.08.03-.15.08-.2s.12-.08.2-.08h1.32c.08,0,.15.03.2.08s.08.12.08.2v5.27c0,.07-.03.14-.08.2-.05.06-.12.08-.2.08h-1.32c-.08,0-.15-.03-.2-.08Z"/>
    <path class="cls-2" d="M186.95,28.48c-.05-.05-.08-.12-.08-.2v-5.27c0-.08.03-.15.08-.2s.12-.08.2-.08h1.29c.08,0,.15.03.21.08.06.06.08.12.08.2v.45c.41-.49.96-.73,1.66-.73h.49c.08,0,.15.03.2.08.05.05.08.12.08.2v1.16c0,.07-.03.14-.08.2-.05.06-.12.08-.2.08h-1.09c-.31,0-.54.08-.71.25-.17.17-.25.41-.25.71v2.87c0,.08-.03.15-.08.2-.06.05-.12.08-.21.08h-1.39c-.08,0-.15-.03-.2-.08Z"/>
  </g>
  <g>
    <path class="cls-1" d="M3.39,26.23C1.29,24.41.17,21.78.04,18.32c-.03-.71-.04-1.86-.04-3.45s.01-2.8.04-3.53c.13-3.4,1.27-6.02,3.41-7.86S8.5.72,12.16.72c2.3,0,4.37.39,6.2,1.16,1.83.77,3.27,1.87,4.33,3.29,1.06,1.42,1.6,3.09,1.63,5v.08c0,.21-.08.39-.25.53s-.36.21-.57.21h-5.29c-.34,0-.6-.07-.78-.21-.18-.14-.34-.41-.47-.8-.37-1.33-.94-2.27-1.73-2.8-.78-.54-1.82-.8-3.1-.8-3.08,0-4.68,1.73-4.78,5.18-.03.71-.04,1.79-.04,3.25s.01,2.58.04,3.33c.1,3.45,1.7,5.18,4.78,5.18,1.28,0,2.33-.28,3.14-.84.81-.56,1.37-1.48,1.69-2.76.1-.39.25-.66.43-.8.18-.14.46-.22.82-.22h5.29c.24,0,.44.08.61.24.17.16.24.35.22.59-.03,1.91-.57,3.57-1.63,5-1.06,1.42-2.5,2.52-4.33,3.29-1.83.77-3.9,1.16-6.2,1.16-3.74,0-6.66-.91-8.76-2.73Z"/>
    <path class="cls-1" d="M28.29,28.26c-.2-.2-.29-.42-.29-.69V1.7c0-.29.1-.52.29-.71.2-.18.42-.27.69-.27h4.63c.29,0,.52.09.71.27.18.18.27.42.27.71v25.88c0,.29-.09.52-.27.71-.18.18-.42.27-.71.27h-4.63c-.26,0-.49-.1-.69-.29Z"/>
    <path class="cls-1" d="M39.45,4.95c-.18-.18-.27-.42-.27-.71V.72c0-.29.09-.52.27-.71.18-.18.42-.27.71-.27h4.71c.29,0,.52.09.71.27.18.18.27.42.27.71v3.53c0,.29-.09.52-.27.71-.18.18-.42.27-.71.27h-4.71c-.29,0-.52-.09-.71-.27ZM39.49,28.28c-.18-.18-.27-.42-.27-.71V9.15c0-.29.09-.52.27-.71.18-.18.42-.27.71-.27h4.63c.29,0,.52.09.71.27.18.18.27.42.27.71v18.43c0,.26-.09.49-.27.69-.18.2-.42.29-.71.29h-4.63c-.29,0-.52-.09-.71-.27Z"/>
    <path class="cls-1" d="M50.72,28.26c-.2-.2-.29-.42-.29-.69V1.7c0-.29.1-.52.29-.71.2-.18.42-.27.69-.27h4.55c.29,0,.52.09.71.27.18.18.27.42.27.71v13.14l5.45-6c.05-.05.15-.14.29-.27.14-.13.29-.23.45-.29.16-.07.34-.1.55-.1h5.25c.23,0,.44.09.61.25.17.17.25.37.25.61,0,.29-.1.51-.31.67l-7.06,7.61,8.04,9.76c.21.21.31.41.31.59,0,.26-.08.48-.25.65-.17.17-.39.25-.65.25h-5.37c-.34,0-.59-.05-.76-.16-.17-.1-.37-.27-.61-.51l-6.2-7.45v7.14c0,.26-.09.49-.27.69-.18.2-.42.29-.71.29h-4.55c-.26,0-.49-.1-.69-.29Z"/>
    <path class="cls-1" d="M75.89,26.23c-2.1-1.82-3.22-4.45-3.35-7.9-.03-.71-.04-1.86-.04-3.45s.01-2.8.04-3.53c.13-3.4,1.27-6.02,3.41-7.86s5.04-2.76,8.71-2.76c2.3,0,4.37.39,6.2,1.16,1.83.77,3.27,1.87,4.33,3.29s1.6,3.09,1.63,5v.08c0,.21-.08.39-.25.53s-.36.21-.57.21h-5.29c-.34,0-.6-.07-.78-.21-.18-.14-.34-.41-.47-.8-.37-1.33-.94-2.27-1.73-2.8-.78-.54-1.82-.8-3.1-.8-3.08,0-4.68,1.73-4.78,5.18-.03.71-.04,1.79-.04,3.25s.01,2.58.04,3.33c.1,3.45,1.7,5.18,4.78,5.18,1.28,0,2.33-.28,3.14-.84.81-.56,1.37-1.48,1.69-2.76.1-.39.25-.66.43-.8.18-.14.46-.22.82-.22h5.29c.23,0,.44.08.61.24.17.16.24.35.21.59-.03,1.91-.57,3.57-1.63,5s-2.5,2.52-4.33,3.29c-1.83.77-3.9,1.16-6.2,1.16-3.74,0-6.66-.91-8.76-2.73Z"/>
    <path class="cls-1" d="M100.79,28.26c-.2-.2-.29-.42-.29-.69V1.7c0-.29.1-.52.29-.71.2-.18.42-.27.69-.27h4.63c.29,0,.52.09.71.27.18.18.27.42.27.71v25.88c0,.29-.09.52-.27.71-.18.18-.42.27-.71.27h-4.63c-.26,0-.49-.1-.69-.29Z"/>
    <path class="cls-1" d="M114.05,28.15c-1.14-.54-2.03-1.27-2.67-2.2s-.96-1.95-.96-3.08c0-1.8.74-3.25,2.21-4.35s3.51-1.86,6.1-2.27l4.9-.75v-.55c0-.99-.21-1.73-.63-2.2s-1.12-.71-2.12-.71c-.6,0-1.1.1-1.49.31-.39.21-.8.5-1.21.86-.37.31-.64.52-.82.63-.08.21-.22.31-.43.31h-4.27c-.26,0-.48-.08-.65-.25s-.24-.37-.22-.61c.03-.71.37-1.49,1.04-2.35.67-.86,1.69-1.61,3.06-2.24,1.37-.63,3.06-.94,5.08-.94,3.22,0,5.59.71,7.14,2.14,1.54,1.42,2.31,3.34,2.31,5.75v11.92c0,.26-.09.49-.28.69-.18.2-.42.29-.71.29h-4.55c-.26,0-.49-.1-.69-.29-.2-.2-.29-.42-.29-.69v-1.37c-.58.81-1.38,1.47-2.41,1.98-1.03.51-2.25.76-3.67.76s-2.65-.27-3.78-.8ZM122.6,23.3c.75-.78,1.12-1.93,1.12-3.45v-.55l-3.33.59c-2.35.42-3.53,1.24-3.53,2.47,0,.65.28,1.17.82,1.55s1.21.57,2,.57c1.2,0,2.18-.39,2.92-1.18Z"/>
    <path class="cls-1" d="M135.14,28.26c-.2-.2-.29-.42-.29-.69V1.7c0-.29.1-.52.29-.71.2-.18.42-.27.69-.27h4.55c.29,0,.52.09.71.27.18.18.27.42.27.71v13.14l5.45-6c.05-.05.15-.14.29-.27s.29-.23.45-.29c.16-.07.34-.1.55-.1h5.25c.23,0,.44.09.61.25.17.17.25.37.25.61,0,.29-.1.51-.31.67l-7.06,7.61,8.04,9.76c.21.21.31.41.31.59,0,.26-.08.48-.25.65-.17.17-.39.25-.65.25h-5.37c-.34,0-.59-.05-.76-.16-.17-.1-.37-.27-.61-.51l-6.2-7.45v7.14c0,.26-.09.49-.27.69-.18.2-.42.29-.71.29h-4.55c-.26,0-.49-.1-.69-.29Z"/>
  </g>
</svg>