<?xml version="1.0" encoding="UTF-8"?>
<svg id="Calque_1" data-name="Calque 1" xmlns="http://www.w3.org/2000/svg" viewBox="0 0 120 120">
  <defs>
    <style>
      .cls-1 {
        fill: #fff;
      }
    </style>
  </defs>
  <path class="cls-1" d="M60,91.12c-17.16,0-31.12-13.96-31.12-31.12s13.96-31.12,31.12-31.12,31.12,13.96,31.12,31.12-13.96,31.12-31.12,31.12ZM60,32.39c-15.22,0-27.61,12.39-27.61,27.61s12.38,27.61,27.61,27.61,27.61-12.39,27.61-27.61-12.38-27.61-27.61-27.61Z"/>
  <circle class="cls-1" cx="92.96" cy="27.04" r="7.61"/>
  <path class="cls-1" d="M92.19,120H27.82C12.48,120,0,107.52,0,92.19V27.82C0,12.48,12.48,0,27.82,0h64.37c15.34,0,27.81,12.48,27.81,27.82v64.37c0,15.34-12.48,27.81-27.81,27.81ZM27.82,3.51C14.42,3.51,3.51,14.42,3.51,27.82v64.37c0,13.4,10.9,24.3,24.3,24.3h64.37c13.4,0,24.3-10.9,24.3-24.3V27.82c0-13.4-10.9-24.3-24.3-24.3H27.82Z"/>
</svg>