<?xml version="1.0" encoding="UTF-8"?>
<svg id="orinateurs" xmlns="http://www.w3.org/2000/svg" viewBox="0 0 179.43 179.43">
  <defs>
    <style>
      .cls-1 {
        fill: #888b8d;
      }
    </style>
  </defs>
  <path class="cls-1" d="M39.84,104.43h-5.45v-42.39h14.45c3.59,0,6.7,1.19,9.32,3.58,2.62,2.39,3.94,5.4,3.94,9.03s-1.31,6.64-3.94,9.03c-2.62,2.39-5.73,3.58-9.32,3.58h-9v17.17ZM39.84,82.05h9.12c2.29,0,4.13-.77,5.51-2.31,1.38-1.54,2.07-3.24,2.07-5.09s-.69-3.55-2.07-5.09c-1.38-1.54-3.22-2.31-5.51-2.31h-9.12v14.8ZM72.78,68.14c-.75.75-1.66,1.12-2.72,1.12-1.07,0-1.97-.37-2.72-1.12-.75-.75-1.12-1.66-1.12-2.72s.37-1.97,1.12-2.72c.75-.75,1.66-1.12,2.72-1.12s1.97.37,2.72,1.12c.75.75,1.12,1.66,1.12,2.72s-.38,1.97-1.13,2.72h0ZM72.78,104.43h-5.45v-29.01h5.45v29.01ZM104.08,104.43h-6.39l-7.16-10.72-7.04,10.72h-6.39l10.24-14.74-10.01-14.27h6.16l7.16,10.24,6.81-10.24h6.39l-10.12,14.27,10.36,14.74ZM121.05,105.38c-4.38,0-7.94-1.46-10.69-4.38-2.74-2.92-4.11-6.61-4.11-11.07,0-4.22,1.33-7.85,4-10.89,2.66-3.04,6.07-4.56,10.21-4.56s7.75,1.4,10.33,4.2c2.58,2.8,3.88,6.55,3.88,11.25l-.06,1.01h-22.91c.16,2.92,1.13,5.23,2.93,6.93,1.8,1.7,3.9,2.55,6.31,2.55,3.91,0,6.55-1.66,7.93-4.97l4.85,2.01c-.95,2.25-2.51,4.13-4.68,5.65-2.17,1.52-4.83,2.28-7.99,2.28h0ZM128.87,86.44c-.12-1.66-.88-3.24-2.28-4.74-1.4-1.5-3.48-2.25-6.25-2.25-2.01,0-3.76.63-5.24,1.89-1.48,1.26-2.5,2.96-3.05,5.09h16.81ZM145.04,104.43h-5.45v-42.39h5.45v42.39Z"/>
</svg>