<?xml version="1.0" encoding="UTF-8"?>
<svg id="Calque_1" data-name="Calque 1" xmlns="http://www.w3.org/2000/svg" viewBox="0 0 262.02 262.02">
  <defs>
    <style>
      .cls-1 {
        stroke: #ccff26;
      }

      .cls-1, .cls-2 {
        fill: none;
        stroke-linecap: round;
        stroke-linejoin: round;
        stroke-width: 2px;
      }

      .cls-2 {
        stroke: #fff;
      }
    </style>
  </defs>
  <g>
    <path class="cls-2" d="M164.63,127.21v55.75c0,2.76-2.24,5-5,5h-57.25c-2.76,0-5-2.24-5-5v-45.73"/>
    <line class="cls-2" x1="122.03" y1="177.96" x2="139.99" y2="177.96"/>
  </g>
  <g>
    <path class="cls-2" d="M97.39,113.67v-39.29c0-2.76,2.24-5,5-5h57.25c2.76,0,5,2.24,5,5v52.84"/>
    <line class="cls-2" x1="122.03" y1="79.37" x2="129.98" y2="79.37"/>
    <line class="cls-2" x1="139.99" y1="79.37" x2="139.99" y2="79.37"/>
  </g>
  <path class="cls-1" d="M80.04,119.68c1.73,5.09,6.55,8.75,12.23,8.75s10.5-3.66,12.23-8.75c.23-.67,1.14-.67,1.37,0,1.73,5.09,6.55,8.75,12.23,8.75s10.5-3.66,12.23-8.75c.23-.67,1.14-.67,1.37,0,1.73,5.09,6.55,8.75,12.23,8.75s10.5-3.66,12.23-8.75c.23-.67,1.14-.67,1.37,0,1.73,5.09,6.55,8.75,12.23,8.75s10.5-3.66,12.23-8.75"/>
</svg>