<?xml version="1.0" encoding="UTF-8"?>
<svg id="Calque_1" data-name="Calque 1" xmlns="http://www.w3.org/2000/svg" xmlns:xlink="http://www.w3.org/1999/xlink" viewBox="-87.75 -68.37 262.02 262.02">
  <defs>
    <style>
      .cls-1 {
        stroke: #fff;
      }

      .cls-1, .cls-2 {
        fill: none;
        stroke-linecap: round;
        stroke-linejoin: round;
        stroke-width: 2px;
      }

      .cls-2 {
        stroke: url(#Dégradé_sans_nom_23);
      }
    </style>
    <linearGradient id="Dégradé_sans_nom_23" data-name="Dégradé sans nom 23" x1="2.73" y1="39.81" x2="35.44" y2="96.45" gradientUnits="userSpaceOnUse">
      <stop offset="0" stop-color="#ccff26"/>
      <stop offset=".32" stop-color="#ccff28"/>
      <stop offset=".47" stop-color="#ceff2f"/>
      <stop offset=".57" stop-color="#d1ff3b"/>
      <stop offset=".66" stop-color="#d5ff4d"/>
      <stop offset=".74" stop-color="#daff65"/>
      <stop offset=".81" stop-color="#e1ff82"/>
      <stop offset=".88" stop-color="#e9ffa4"/>
      <stop offset=".94" stop-color="#f3ffcc"/>
      <stop offset=".99" stop-color="#fdfff7"/>
      <stop offset="1" stop-color="#fff"/>
    </linearGradient>
  </defs>
  <g>
    <path class="cls-1" d="M79.09,58.84v55.75c0,2.76-2.24,5-5,5H16.84c-2.76,0-5-2.24-5-5v-45.73"/>
    <line class="cls-1" x1="36.49" y1="109.59" x2="54.45" y2="109.59"/>
  </g>
  <g>
    <path class="cls-2" d="M25.24,69.1c6.79-2.55,11.61-9.11,11.61-16.79,0-7.06-4.08-13.18-10.03-16.1-.75-.37-1.62.19-1.62,1.02v13.4c0,1.11-.74,2.09-1.81,2.4l-8.53,2.47c-1.1.32-2.21-.51-2.21-1.66v-16c0-1.14-1.23-1.86-2.23-1.32-5.61,3.03-9.43,8.97-9.43,15.79,0,7.69,4.85,14.26,11.66,16.8h0l.03,39.32"/>
    <path class="cls-1" d="M12.69,24.87V6c0-2.76,2.24-5,5-5h57.25c2.76,0,5,2.24,5,5v108.59c0,2.76-2.24,5-5,5H17.69c-2.76,0-5-2.24-5-5v-6.15"/>
    <line class="cls-1" x1="37.33" y1="109.59" x2="55.29" y2="109.59"/>
    <line class="cls-1" x1="37.33" y1="11" x2="45.28" y2="11"/>
    <line class="cls-1" x1="55.29" y1="11" x2="55.29" y2="11"/>
    <polyline class="cls-1" points="79.39 40.52 53.91 66 67.83 79.92 58.33 89.41 62.45 93.54"/>
  </g>
</svg>