<?xml version="1.0" encoding="UTF-8"?>
<svg id="Calque_1" data-name="Calque 1" xmlns="http://www.w3.org/2000/svg" viewBox="0 0 120 120">
  <defs>
    <style>
      .cls-1 {
        fill: #fff;
      }
    </style>
  </defs>
  <path class="cls-1" d="M79.45,0c1.01,0,10.65,1.09,12.68,1.47v18.47s-10.77.07-10.77.07c-2.84.02-5.53,1.01-7.61,2.85-2.21,2.08-3.08,4.83-3.33,7.86v15.04s20.83,0,20.83,0l-3.32,21.71-17.52.02v52.49s-23.47,0-23.47,0v-52.49s-19.07,0-19.07,0v-21.72s19.07,0,19.07,0v-17.87c.2-4.36.85-8.46,2.54-12.43C53.76,5.44,61.95,1.2,72.19,0h7.27Z"/>
</svg>