<?xml version="1.0" encoding="UTF-8"?>
<svg id="orinateurs" xmlns="http://www.w3.org/2000/svg" viewBox="0 0 179.43 179.43">
  <path d="M11.56,88.39v-1.71h6v2.18c-.02,1.11.86,2.02,1.97,2.04.09,0,.18,0,.27-.01,1.01.14,1.95-.52,2.17-1.51.16-.55.15-1.13-.04-1.67-1.16-2.92-9.1-4.24-10.11-8.8-.21-1-.22-2.03-.04-3.04.62-3.66,3.83-4.98,7.82-4.98,3.18,0,7.55.74,7.55,5.64v1.6h-5.58v-1.4c.06-1.06-.74-1.96-1.8-2.03-.1,0-.2,0-.3,0-.98-.11-1.87.55-2.05,1.52-.06.39-.05.78.04,1.17.66,2.61,9.14,4.01,10.07,8.72.23,1.22.25,2.47.04,3.7-.54,3.73-3.87,5.13-7.9,5.13-4.23,0-8.13-1.52-8.13-6.54ZM84.29,88.31v-1.71h5.93v2.14c-.04,1.09.82,2,1.91,2.04.1,0,.2,0,.3-.01,1,.15,1.94-.5,2.17-1.48.16-.54.15-1.11-.04-1.64-1.12-2.88-8.99-4.21-9.99-8.75-.21-.99-.22-2-.04-3,.62-3.62,3.84-4.94,7.75-4.94,3.14,0,7.47.78,7.47,5.6v1.56h-5.54v-1.36c.07-1.05-.73-1.96-1.78-2.02-.09,0-.18,0-.27,0-.96-.13-1.85.53-2.01,1.48-.06.39-.05.78.04,1.17.62,2.61,9.02,3.97,9.95,8.64.23,1.21.24,2.45.04,3.66-.54,3.74-3.83,5.1-7.82,5.1-4.19,0-8.06-1.52-8.06-6.46h0ZM105.51,89.13c-.05-.49-.07-.99-.04-1.48v-16.11h5.65v16.62c0,.29,0,.57.04.86.32,1.18,1.53,1.87,2.7,1.56.76-.2,1.35-.8,1.56-1.56.03-.28.05-.57.04-.86v-16.62h5.66v16.11c0,.43-.04,1.25-.04,1.48-.39,4.21-3.68,5.56-7.78,5.56s-7.4-1.36-7.79-5.56h0ZM152.07,88.9c-.06-.49-.08-.99-.08-1.49v-9.45c0-.39.04-1.09.08-1.48.5-4.2,3.87-5.52,7.86-5.52s7.44,1.32,7.82,5.52c.05.49.06.99.04,1.48v.73h-5.65v-1.24c0-.29-.02-.57-.08-.86-.39-1.23-1.69-1.92-2.93-1.53-.73.23-1.3.8-1.53,1.53-.07.35-.09.7-.08,1.05v10.27c0,.29,0,.57.04.86.28,1.05,1.28,1.75,2.36,1.64,1.07.11,2.05-.59,2.28-1.63.05-.28.07-.57.04-.86v-3.27h-2.28v-3.27h7.9v6.03c0,.49-.02.99-.08,1.48-.39,4.09-3.91,5.52-7.86,5.52s-7.47-1.44-7.86-5.52h0ZM73.25,93.99l-.15-20.78-3.88,20.78h-5.65l-3.84-20.78-.15,20.78h-5.58l.46-22.41h9.1l2.83,17.51,2.83-17.51h9.1l.5,22.41h-5.58ZM43.51,93.99l-3.02-20.78-3.1,20.78h-6.04l4.11-22.41h9.95l4.11,22.41h-6.01ZM138.16,93.76l-5.62-18.64.31,18.64h-5.5v-22.18h8.29l5.26,18.06-.3-18.06h5.54v22.18h-7.98Z"/>
</svg>