<?xml version="1.0" encoding="UTF-8"?>
<svg id="Calque_1" data-name="Calque 1" xmlns="http://www.w3.org/2000/svg" xmlns:xlink="http://www.w3.org/1999/xlink" viewBox="0 0 262.02 262.02">
  <defs>
    <style>
      .cls-1 {
        stroke: url(#Dégradé_sans_nom_3);
      }

      .cls-1, .cls-2 {
        fill: none;
        stroke-linecap: round;
        stroke-linejoin: round;
        stroke-width: 2px;
      }

      .cls-2 {
        stroke: #fff;
      }
    </style>
    <linearGradient id="Dégradé_sans_nom_3" data-name="Dégradé sans nom 3" x1="131.01" y1="165.56" x2="131.01" y2="210.42" gradientUnits="userSpaceOnUse">
      <stop offset="0" stop-color="#ccff26"/>
      <stop offset=".32" stop-color="#ccff28"/>
      <stop offset=".47" stop-color="#ceff2f"/>
      <stop offset=".57" stop-color="#d1ff3b"/>
      <stop offset=".66" stop-color="#d5ff4d"/>
      <stop offset=".74" stop-color="#daff65"/>
      <stop offset=".81" stop-color="#e1ff82"/>
      <stop offset=".88" stop-color="#e9ffa4"/>
      <stop offset=".94" stop-color="#f3ffcc"/>
      <stop offset=".99" stop-color="#fdfff7"/>
      <stop offset="1" stop-color="#fff"/>
    </linearGradient>
  </defs>
  <g>
    <path class="cls-2" d="M118.81,187.99h-16.43c-2.76,0-5-2.24-5-5v-55.48"/>
    <path class="cls-2" d="M97.39,127.52v-53.11c0-2.76,2.24-5,5-5h57.25c2.76,0,5,2.24,5,5v108.59c0,2.76-2.24,5-5,5h-11.74"/>
    <line class="cls-2" x1="122.03" y1="79.41" x2="129.98" y2="79.41"/>
    <line class="cls-2" x1="139.99" y1="79.41" x2="139.99" y2="79.41"/>
  </g>
  <g>
    <line class="cls-2" x1="123.39" y1="145.25" x2="138.63" y2="160.49"/>
    <line class="cls-2" x1="138.63" y1="145.25" x2="123.39" y2="160.49"/>
  </g>
  <polyline class="cls-1" points="127.82 209.42 140.34 180.67 131.01 187.99 121.68 195.31 134.2 166.56"/>
</svg>