<?xml version="1.0" encoding="UTF-8"?>
<svg id="orinateurs" xmlns="http://www.w3.org/2000/svg" version="1.1" viewBox="0 0 179.43 179.43">
  <!-- Generator: Adobe Illustrator 30.2.1, SVG Export Plug-In . SVG Version: 2.1.1 Build 1)  -->
  <path id="B" d="M104.79,88.07c-.07-8.1,6.62-11.99,6.92-12.18-3.77-5.51-9.62-6.26-11.71-6.35-4.98-.51-9.72,2.93-12.25,2.93s-6.43-2.86-10.56-2.78c-5.43.08-10.44,3.15-13.24,8.02-5.64,9.78-1.44,24.29,4.06,32.24,2.69,3.88,5.89,8.26,10.1,8.1,4.06-.16,5.59-2.63,10.49-2.63s6.28,2.63,10.56,2.54c4.36-.09,7.13-3.97,9.8-7.87,3.08-4.51,4.35-8.88,4.43-9.1-.1-.04-8.5-3.26-8.59-12.94"/>
  <path d="M96.73,64.28c2.24-2.71,3.74-6.47,3.33-10.22-3.22.13-7.12,2.15-9.43,4.85-2.07,2.39-3.88,6.22-3.39,9.9,3.58.28,7.25-1.83,9.49-4.53"/>
</svg>