<?xml version="1.0" encoding="UTF-8"?>
<svg id="orinateurs" xmlns="http://www.w3.org/2000/svg" viewBox="0 0 145.58 22.47">
  <defs>
    <style>
      .cls-1 {
        fill: #231f20;
      }
    </style>
  </defs>
  <path class="cls-1" d="M43.2,0h-12.03v22.47h3.02V2.4h8.37c2.37,0,4.3,1.87,4.3,4.17s-1.93,4.17-4.3,4.17h-5.9v2.36h6.54c3.72,0,6.73-2.93,6.73-6.55s-3.01-6.55-6.73-6.55Z"/>
  <polygon class="cls-1" points="57.01 0 57.01 2.4 57.01 20.07 57.01 22.47 59.96 22.47 74.62 22.47 74.62 20.07 59.96 20.07 59.96 2.4 74.62 2.4 74.62 0 59.96 0 57.01 0"/>
  <polygon class="cls-1" points="10.12 6.79 4.32 0 .31 0 8.1 9.14 10.12 6.79"/>
  <polygon class="cls-1" points="23.36 0 19.35 0 0 22.47 4.07 22.47 11.82 13.42 19.52 22.47 23.54 22.47 13.78 11.11 23.36 0"/>
  <polygon class="cls-1" points="145.58 22.47 135.74 0 132.83 0 122.76 22.47 125.96 22.47 134.26 3.24 138.57 13.34 132.59 13.34 131.64 15.61 139.54 15.61 142.47 22.47 145.58 22.47"/>
  <rect class="cls-1" x="112.42" width="2.99" height="22.47"/>
  <rect class="cls-1" x="62.56" y="9.74" width="10.31" height="2.28"/>
  <path class="cls-1" d="M102.43,6.55c0-3.62-3.01-6.55-6.73-6.55h-12.03v22.47h3.02V2.4h8.37c2.38,0,4.3,1.87,4.3,4.17s-1.92,4.17-4.3,4.17h-5.9v2.36h6.11l5.11,9.38h3.34s-4.76-8.28-5.61-9.82c2.52-.95,4.31-3.32,4.31-6.11Z"/>
</svg>