<?xml version="1.0" encoding="UTF-8"?>
<svg id="Calque_1" data-name="Calque 1" xmlns="http://www.w3.org/2000/svg" xmlns:xlink="http://www.w3.org/1999/xlink" viewBox="0 0 262.02 262.02">
  <defs>
    <style>
      .cls-1 {
        stroke: #fff;
      }

      .cls-1, .cls-2 {
        fill: none;
        stroke-linecap: round;
        stroke-linejoin: round;
        stroke-width: 2px;
      }

      .cls-2 {
        stroke: url(#Dégradé_sans_nom_34);
      }
    </style>
    <linearGradient id="Dégradé_sans_nom_34" data-name="Dégradé sans nom 34" x1="72.46" y1="104.76" x2="72.46" y2="167.46" gradientUnits="userSpaceOnUse">
      <stop offset="0" stop-color="#ccff26"/>
      <stop offset=".32" stop-color="#ccff28"/>
      <stop offset=".47" stop-color="#ceff2f"/>
      <stop offset=".57" stop-color="#d1ff3b"/>
      <stop offset=".66" stop-color="#d5ff4d"/>
      <stop offset=".74" stop-color="#daff65"/>
      <stop offset=".81" stop-color="#e1ff82"/>
      <stop offset=".88" stop-color="#e9ffa4"/>
      <stop offset=".94" stop-color="#f3ffcc"/>
      <stop offset=".99" stop-color="#fdfff7"/>
      <stop offset="1" stop-color="#fff"/>
    </linearGradient>
  </defs>
  <g>
    <g>
      <path class="cls-1" d="M163.34,171.37c-1.11,2-3.25,3.35-5.72,3.35h-66.5"/>
      <path class="cls-1" d="M51.77,110.55v-21.41c0-3.27,2.65-5.92,5.92-5.92h100.58c3.27,0,5.92,2.65,5.92,5.92v79.03"/>
      <path class="cls-1" d="M51.77,141v27.81c0,3.27,2.65,5.92,5.92,5.92h6.96"/>
    </g>
    <path class="cls-1" d="M189.4,174.72h14.93c3.27,0,5.92-2.65,5.92-5.92v-25.28c0-3.27-2.65-5.92-5.92-5.92h-40.15v31.46"/>
    <circle class="cls-1" cx="77.88" cy="174.72" r="13.24"/>
    <circle class="cls-1" cx="176.16" cy="174.72" r="13.24"/>
    <path class="cls-1" d="M164.19,113.27h6.9c1.23,0,2.34.77,2.77,1.92l8.78,13.88"/>
  </g>
  <path class="cls-2" d="M67.81,140.02c6.6,2.99,14.65,1.77,20.08-3.66,4.99-4.99,6.43-12.21,4.29-18.48-.27-.79-1.28-1.01-1.87-.42l-9.47,9.47c-.79.79-2,.96-2.97.42l-7.78-4.29c-1.01-.55-1.2-1.92-.39-2.73l11.31-11.31c.81-.81.45-2.18-.65-2.51-6.11-1.83-13.01-.32-17.83,4.5-5.44,5.44-6.65,13.51-3.64,20.13h0s-7.14,7.14-7.14,7.14v28.19"/>
</svg>