<?xml version="1.0" encoding="UTF-8"?>
<svg id="orinateurs" xmlns="http://www.w3.org/2000/svg" viewBox="0 0 179.43 179.43">
  <defs>
    <style>
      .cls-1 {
        fill: #ce0e2d;
      }
    </style>
  </defs>
  <path class="cls-1" d="M96.03,98.45c.11.08.25.09.37.02,3.96-1.98,20.46-10.37,27.28-17.03,0,0,4.33-3.47,4.54-9.07.49-7.75-7.31-14.94-7.31-14.94,0,0-14.42,17.49-25.01,40.58-.04.16,0,.33.12.44M133.95,80.42s-23.52,12.63-35.69,20.85c-.13.09-.19.24-.15.39,0,0,.12.23.29.23,4.35,0,20.83.02,21.27-.05,1.64-.12,3.25-.49,4.77-1.1,0,0,5.87-1.86,8.9-8.53,0,0,2.71-5.43.61-11.78M98.86,103.95c-.13.03-.25.11-.32.23-.03.13,0,.27.1.37,2.64,1.91,10.67,7.53,14.53,8.61,0,0,7.16,2.44,13.37-8.24l-27.71-.95h.02ZM92.31,96.23c.15.06.32,0,.39-.15,2.66-3.84,14.62-21.61,17.06-32.42,0,0,1.32-5.22.05-8.8,0,0-1.82-6.77-9.14-8.56,0,0-2.1-.54-4.35-.86,0,0-8.21,10.56-4.2,50.46-.02.14.06.27.2.32M83.14,45.48c-1.2.1-4.45.86-4.45.86-7.33,1.88-9.07,8.56-9.07,8.56-1.34,4.18.02,8.8.02,8.8,2.44,10.85,14.47,28.72,17.06,32.47.17.2.32.12.32.12.16-.04.26-.18.27-.34,4.01-39.91-4.16-50.46-4.16-50.46M81.31,101.7c.15-.23-.1-.42-.1-.42-12.15-8.21-35.72-20.83-35.72-20.83-2.81,8.6,1.89,17.85,10.49,20.65,1.38.45,2.82.72,4.27.79.42.07,16.45,0,20.76-.02.12-.02.22-.08.29-.17M80.89,104.17c-.06-.15-.2-.25-.37-.25l-27.67.95c3.01,5.35,8.07,9.51,13.32,8.24,3.63-.91,11.86-6.65,14.57-8.61.23-.17.15-.32.15-.34M83.46,98.45c.1-.09.13-.23.07-.34-6.74-14.49-15.15-28.15-25.06-40.68,0,0-7.87,7.48-7.31,14.99.27,3.49,1.91,6.74,4.57,9.02,6.87,6.7,23.49,15.16,27.36,17.09.13.05.27.02.37-.07"/>
</svg>