<?xml version="1.0" encoding="UTF-8"?>
<svg id="Calque_2" data-name="Calque 2" xmlns="http://www.w3.org/2000/svg" viewBox="0 0 27.45 27.45">
  <defs>
    <style>
      .cls-1 {
        fill: #cf3;
      }
    </style>
  </defs>
  <g id="Calque_1-2" data-name="Calque 1">
    <g>
      <circle class="cls-1" cx="13.73" cy="13.73" r="13.73"/>
      <path d="M12.52,7.43c-.1-.1-.15-.23-.15-.39v-1.27c0-.16.05-.29.15-.4.1-.11.23-.17.39-.17h1.49c.16,0,.29.06.4.17.11.11.17.24.17.4v1.27c0,.16-.06.29-.17.39-.11.1-.24.15-.4.15h-1.49c-.16,0-.29-.05-.39-.15ZM12.7,21.98c-.1-.1-.15-.23-.15-.39v-11.18c0-.16.05-.29.15-.39.1-.1.23-.15.39-.15h1.13c.16,0,.29.05.39.15s.15.23.15.39v11.18c0,.16-.05.29-.15.39-.1.1-.23.15-.39.15h-1.13c-.16,0-.29-.05-.39-.15Z"/>
    </g>
  </g>
</svg>