<?xml version="1.0" encoding="UTF-8"?>
<svg id="Calque_2" data-name="Calque 2" xmlns="http://www.w3.org/2000/svg" viewBox="0 0 49.74 61.07">
  <defs>
    <style>
      .cls-1 {
        fill: #fff;
      }
    </style>
  </defs>
  <g id="Calque_1-2" data-name="Calque 1">
    <g>
      <path id="B" class="cls-1" d="M41.53,32.46c-.07-7.73,6.32-11.44,6.6-11.62-3.6-5.26-9.18-5.97-11.18-6.06-4.75-.49-9.28,2.8-11.69,2.8s-6.14-2.73-10.08-2.65c-5.18.08-9.96,3.01-12.64,7.65-5.38,9.33-1.37,23.18,3.87,30.77,2.57,3.7,5.62,7.88,9.64,7.73,3.87-.15,5.33-2.51,10.01-2.51s5.99,2.51,10.08,2.42c4.16-.09,6.8-3.79,9.35-7.51,2.94-4.3,4.15-8.47,4.23-8.68-.1-.04-8.11-3.11-8.2-12.35"/>
      <path class="cls-1" d="M33.84,9.75c2.14-2.59,3.57-6.17,3.18-9.75-3.07.12-6.79,2.05-9,4.63-1.98,2.28-3.7,5.94-3.24,9.45,3.42.27,6.92-1.75,9.06-4.32"/>
    </g>
  </g>
</svg>