<?xml version="1.0" encoding="UTF-8"?>
<svg id="orinateurs" xmlns="http://www.w3.org/2000/svg" viewBox="0 0 179.43 179.43">
  <defs>
    <style>
      .cls-1 {
        fill-rule: evenodd;
      }
    </style>
  </defs>
  <path class="cls-1" d="M34.03,92.72c-7.36-.08-12.12-3.6-12.12-8.98s4.75-8.9,12.11-8.98c7.36.08,12.12,3.6,12.12,8.98s-4.75,8.9-12.11,8.98h0ZM34.25,70.43h-.22c-.07,0-.15,0-.22,0-10.07.17-17.11,5.64-17.11,13.31s7.03,13.15,17.1,13.31h.22c.08,0,.22,0,.22,0,10.07-.17,17.11-5.64,17.11-13.31s-7.03-13.15-17.1-13.31h0ZM145.41,92.72c-7.36-.08-12.12-3.6-12.12-8.98s4.76-8.9,12.11-8.98c7.36.08,12.12,3.6,12.12,8.98s-4.75,8.9-12.11,8.98h0ZM145.63,70.43h-.22s-.22,0-.22,0c-10.07.17-17.11,5.64-17.11,13.31s7.03,13.15,17.11,13.31c.15,0,.3,0,.45,0,10.07-.17,17.1-5.64,17.1-13.31s-7.03-13.15-17.1-13.31h0ZM108.35,92.72c-7.36-.08-12.12-3.6-12.12-8.98s4.76-8.9,12.11-8.98c7.36.08,12.12,3.6,12.12,8.98s-4.76,8.9-12.11,8.98ZM108.57,70.43h-.22s-.22,0-.22,0c-4.8.08-8.91,1.36-11.89,3.52v-2.27h-5.21v33.7h5.21v-11.83c2.99,2.15,7.09,3.44,11.89,3.51.15,0,.3,0,.45,0,10.07-.16,17.1-5.64,17.1-13.31s-7.03-13.15-17.1-13.31h0ZM71.19,92.72c-7.36-.08-12.12-3.6-12.12-8.98s4.76-8.9,12.11-8.98c7.36.08,12.12,3.6,12.12,8.98s-4.75,8.9-12.11,8.98ZM71.41,70.43h-.22s-.22,0-.22,0c-4.8.08-8.91,1.36-11.89,3.52v-2.27h-5.21v33.7h5.21v-11.83c2.99,2.15,7.09,3.44,11.89,3.51.15,0,.3,0,.45,0,10.07-.16,17.1-5.64,17.1-13.31s-7.03-13.15-17.1-13.31h0Z"/>
</svg>