<?xml version="1.0" encoding="UTF-8"?>
<svg id="orinateurs" xmlns="http://www.w3.org/2000/svg" viewBox="0 0 179.43 179.43">
  <defs>
    <style>
      .cls-1 {
        fill: #f60;
      }
    </style>
  </defs>
  <path class="cls-1" d="M82.69,45.72c-9.78.45-15.69,1.98-20.73,5.35-3.59,2.37-6.22,5.46-8.12,9.52-2.08,4.46-3.01,9.36-3.4,18.48-.47,10.2.21,20.38,1.74,25.79,1.37,4.9,3.56,8.65,6.91,11.79,4.14,3.85,8.78,5.88,15.98,6.96,6.59.98,21.86,1.03,28.53.11,8.12-1.11,13.29-3.4,17.53-7.8,2.11-2.16,3.09-3.59,4.46-6.46,2.14-4.51,3.01-9.18,3.43-18.51.32-6.67,0-16.16-.66-20.59-1.56-10.39-5.99-17.14-13.71-21.04-4.09-2.03-10.1-3.22-18.46-3.61-6.3-.29-7.15-.29-13.5.03h0ZM92.42,70.29c3.48.82,5.17,1.98,6.28,4.35,1.13,2.43,1.32,4.43,1.32,15.37v10.28l-3.74-.08-3.77-.08-.13-10.02c-.13-10.94-.18-11.29-1.71-12.47-1.37-1.08-2.53-1.21-10.02-1.24h-7.12l-.13,11.87-.13,11.87h-7.38l-.08-15c-.05-11.84.03-15.08.26-15.24.18-.13,5.8-.18,12.47-.13,9.78.11,12.47.21,13.9.53h0ZM113.14,70.14c.18.37.26,29.03.08,29.95,0,.11-1.71.16-3.77.13l-3.77-.08-.08-14.87c-.03-10.76.03-14.98.24-15.21.24-.29,1.16-.37,3.69-.37,2.95,0,3.4.05,3.61.45h0ZM86.83,90.91v9.39l-3.88-.08-3.9-.08-.08-8.97c-.03-4.93,0-9.12.08-9.28.08-.26,1.11-.34,3.96-.34h3.82v9.36Z"/>
</svg>