<?xml version="1.0" encoding="UTF-8"?>
<svg id="Layer_2" data-name="Layer 2" xmlns="http://www.w3.org/2000/svg" viewBox="0 0 401.11 401.11">
  <defs>
    <style>
      .cls-1 {
        opacity: .5;
      }

      .cls-1, .cls-2, .cls-3 {
        fill: #fff;
      }

      .cls-2 {
        opacity: .2;
      }

    </style>
  </defs>
  <rect class="cls-1" x=".06" y=".06" width="1" height="401"/>
  <rect class="cls-2" x="19.61" y=".06" width="1" height="401"/>
  <rect class="cls-2" x="39.66" y=".06" width="1" height="401"/>
  <rect class="cls-2" x="59.71" y=".06" width="1" height="401"/>
  <rect class="cls-2" x="79.76" y=".06" width="1" height="401"/>
  <rect class="cls-1" x="99.8" y=".06" width="1" height="401"/>
  <rect class="cls-2" x="119.86" y=".06" width="1" height="401"/>
  <rect class="cls-2" x="139.91" y=".06" width="1" height="401"/>
  <rect class="cls-2" x="159.96" y=".06" width="1" height="401"/>
  <rect class="cls-2" x="180.01" y=".06" width="1" height="401"/>
  <rect class="cls-1" x="200.05" y=".06" width="1" height="401"/>
  <rect class="cls-2" x="220.11" y=".06" width="1" height="401"/>
  <rect class="cls-2" x="240.16" y=".06" width="1" height="401"/>
  <rect class="cls-2" x="260.2" y=".06" width="1" height="401"/>
  <rect class="cls-2" x="280.26" y=".06" width="1" height="401"/>
  <rect class="cls-1" x="300.31" y=".06" width="1" height="401"/>
  <rect class="cls-2" x="320.36" y=".06" width="1" height="401"/>
  <rect class="cls-2" x="340.41" y=".06" width="1" height="401"/>
  <rect class="cls-2" x="360.45" y=".06" width="1" height="401"/>
  <rect class="cls-2" x="380.51" y=".06" width="1" height="401"/>
  <rect class="cls-1" x="400.06" width="1" height="401.06"/>
  <rect class="cls-1" x=".06" y=".06" width="401" height="1"/>
  <rect class="cls-2" x=".06" y="19.61" width="401" height="1"/>
  <rect class="cls-2" x=".06" y="39.66" width="401" height="1"/>
  <rect class="cls-2" x=".06" y="59.71" width="401" height="1"/>
  <rect class="cls-2" x=".06" y="79.76" width="401" height="1"/>
  <rect class="cls-1" x=".06" y="99.8" width="401" height="1"/>
  <rect class="cls-2" x=".06" y="119.86" width="401" height="1"/>
  <rect class="cls-2" x=".06" y="139.91" width="401" height="1"/>
  <rect class="cls-2" x=".06" y="159.96" width="401" height="1"/>
  <rect class="cls-2" x=".06" y="180.01" width="401" height="1"/>
  <rect class="cls-1" x=".06" y="200.05" width="401" height="1"/>
  <rect class="cls-2" x=".06" y="220.11" width="401" height="1"/>
  <rect class="cls-2" x=".06" y="240.16" width="401" height="1"/>
  <rect class="cls-2" x=".06" y="260.2" width="401" height="1"/>
  <rect class="cls-2" x=".06" y="280.26" width="401" height="1"/>
  <rect class="cls-1" x=".06" y="300.31" width="401" height="1"/>
  <rect class="cls-2" x=".06" y="320.36" width="401" height="1"/>
  <rect class="cls-2" x=".06" y="340.41" width="401" height="1"/>
  <rect class="cls-2" x=".06" y="360.45" width="401" height="1"/>
  <rect class="cls-2" x=".06" y="380.51" width="401" height="1"/>
  <rect class="cls-1" x=".06" y="400.06" width="401" height="1"/>
  <g>
    <rect class="cls-3" x="100.06" y="97.06" width="1" height="7"/>
    <rect class="cls-3" x="97.06" y="100.06" width="7" height="1"/>
  </g>
  <g>
    <rect class="cls-3" x="100.06" y="197.06" width="1" height="7"/>
    <rect class="cls-3" x="97.06" y="200.06" width="7" height="1"/>
  </g>
  <g>
    <rect class="cls-3" x="100.06" y="297.06" width="1" height="7"/>
    <rect class="cls-3" x="97.06" y="300.06" width="7" height="1"/>
  </g>
  <g>
    <rect class="cls-3" x="200.06" y="97.06" width="1" height="7"/>
    <rect class="cls-3" x="197.06" y="100.06" width="7" height="1"/>
  </g>
  <g>
    <rect class="cls-3" x="200.06" y="197.06" width="1" height="7"/>
    <rect class="cls-3" x="197.06" y="200.06" width="7" height="1"/>
  </g>
  <g>
    <rect class="cls-3" x="200.06" y="297.06" width="1" height="7"/>
    <rect class="cls-3" x="197.06" y="300.06" width="7" height="1"/>
  </g>
  <g>
    <rect class="cls-3" x="300.06" y="97.06" width="1" height="7"/>
    <rect class="cls-3" x="297.06" y="100.06" width="7" height="1"/>
  </g>
  <g>
    <rect class="cls-3" x="300.06" y="197.06" width="1" height="7"/>
    <rect class="cls-3" x="297.06" y="200.06" width="7" height="1"/>
  </g>
  <g>
    <rect class="cls-3" x="300.06" y="297.06" width="1" height="7"/>
    <rect class="cls-3" x="297.06" y="300.06" width="7" height="1"/>
  </g>
  <rect class="cls-3" x="50.06" y="50.06" width="1" height="1"/>
  <rect class="cls-3" x="150.06" y="50.06" width="1" height="1"/>
  <rect class="cls-3" x="250.06" y="50.06" width="1" height="1"/>
  <rect class="cls-3" x="350.06" y="50.06" width="1" height="1"/>
  <rect class="cls-3" x="50.06" y="150.06" width="1" height="1"/>
  <rect class="cls-3" x="150.06" y="150.06" width="1" height="1"/>
  <rect class="cls-3" x="250.06" y="150.06" width="1" height="1"/>
  <rect class="cls-3" x="350.06" y="150.06" width="1" height="1"/>
  <rect class="cls-3" x="50.06" y="250.06" width="1" height="1"/>
  <rect class="cls-3" x="150.06" y="250.06" width="1" height="1"/>
  <rect class="cls-3" x="250.06" y="250.06" width="1" height="1"/>
  <rect class="cls-3" x="350.06" y="250.06" width="1" height="1"/>
  <rect class="cls-3" x="50.06" y="350.06" width="1" height="1"/>
  <rect class="cls-3" x="150.06" y="350.06" width="1" height="1"/>
  <rect class="cls-3" x="250.06" y="350.06" width="1" height="1"/>
  <rect class="cls-3" x="350.06" y="350.06" width="1" height="1"/>
</svg>