<?xml version="1.0" encoding="UTF-8"?>
<svg id="smartphones" xmlns="http://www.w3.org/2000/svg" xmlns:xlink="http://www.w3.org/1999/xlink" version="1.1" viewBox="0 0 179.43 179.43">
  <!-- Generator: Adobe Illustrator 30.2.1, SVG Export Plug-In . SVG Version: 2.1.1 Build 1)  -->
  <defs>
    <style>
      .st0 {
        stroke: #ccff26;
      }

      .st0, .st1, .st2 {
        fill: none;
        stroke-linecap: round;
        stroke-linejoin: round;
        stroke-width: 2px;
      }

      .st1 {
        stroke: #fff;
      }

      .st2 {
        stroke: url(#Dégradé_sans_nom_49);
      }
    </style>
    <linearGradient id="Dégradé_sans_nom_49" data-name="Dégradé sans nom 49" x1="116.5" y1="76.9" x2="116.5" y2="109.7" gradientUnits="userSpaceOnUse">
      <stop offset="0" stop-color="#ccff26"/>
      <stop offset=".32" stop-color="#ccff28"/>
      <stop offset=".47" stop-color="#ceff2f"/>
      <stop offset=".57" stop-color="#d1ff3b"/>
      <stop offset=".66" stop-color="#d5ff4d"/>
      <stop offset=".74" stop-color="#daff65"/>
      <stop offset=".81" stop-color="#e1ff82"/>
      <stop offset=".88" stop-color="#e9ffa4"/>
      <stop offset=".94" stop-color="#f3ffcc"/>
      <stop offset=".99" stop-color="#fdfff7"/>
      <stop offset="1" stop-color="#fff"/>
    </linearGradient>
  </defs>
  <path class="st1" d="M124.74,87.17v28.03c0,1.43-1.16,2.6-2.6,2.6H45.87c-1.43,0-2.6-1.16-2.6-2.6v-50.4c0-1.43,1.16-2.6,2.6-2.6h76.27c1.43,0,2.6,1.16,2.6,2.6v7.06"/>
  <line class="st1" x1="83.87" y1="93" x2="122.14" y2="62.2"/>
  <line class="st2" x1="97.36" y1="108.7" x2="135.63" y2="77.9"/>
  <line class="st1" x1="83.87" y1="93" x2="45.6" y2="62.2"/>
  <polyline class="st0" points="116.96 77.3 136.16 77.3 136.16 95.5"/>
  <line class="st1" x1="51.99" y1="101.83" x2="66.52" y2="101.83"/>
  <line class="st1" x1="51.99" y1="108.7" x2="76.92" y2="108.7"/>
</svg>