<?xml version="1.0" encoding="UTF-8"?>
<svg id="orinateurs" xmlns="http://www.w3.org/2000/svg" version="1.1" viewBox="0 0 120.43 120.68">
  <!-- Generator: Adobe Illustrator 30.2.1, SVG Export Plug-In . SVG Version: 2.1.1 Build 1)  -->
  <defs>
    <style>
      .st0 {
        stroke: #fff;
        stroke-linecap: round;
        stroke-linejoin: round;
      }

      .st0, .st1 {
        fill: none;
        stroke-width: 2px;
      }

      .st2 {
        fill: #cf3;
        opacity: .2;
      }

      .st1 {
        stroke: #ccff26;
        stroke-miterlimit: 10;
      }
    </style>
  </defs>
  <path class="st2" d="M60.22,3.72C28.94,3.72,3.59,29.07,3.59,60.34c0,11.39,3.37,21.98,9.16,30.85l-5.41,22.61,22.85-5.46c8.71,5.46,18.99,8.62,30.02,8.62,31.27,0,56.62-25.35,56.62-56.62S91.49,3.72,60.22,3.72Z"/>
  <path class="st1" d="M60.22,3.72C28.94,3.72,3.59,29.07,3.59,60.34c0,11.39,3.37,21.98,9.16,30.85l-5.41,22.61,22.85-5.46c8.71,5.46,18.99,8.62,30.02,8.62,31.27,0,56.62-25.35,56.62-56.62S91.49,3.72,60.22,3.72Z"/>
  <g id="bfFVQo">
    <path class="st0" d="M59.03,80.85c-12.28-4.95-20.92-16.98-20.79-31.04.06-6.76,5.71-12.41,12.65-12.38,1.54,0,2.95.83,3.72,2.18l4.56,7.98c.85,1.48.94,3.28.05,4.76l-3.32,5.56c1.66,3.29,4.31,5.95,7.65,7.66l5.47-3.28c1.49-.89,3.3-.89,4.81-.03l7.99,4.56c1.36.78,2.23,2.21,2.23,3.72.01,7.29-5.95,12.8-12.95,12.71"/>
  </g>
</svg>