<?xml version="1.0" encoding="UTF-8"?>
<svg id="orinateurs" xmlns="http://www.w3.org/2000/svg" version="1.1" viewBox="0 0 120.43 120.68">
  <!-- Generator: Adobe Illustrator 30.2.1, SVG Export Plug-In . SVG Version: 2.1.1 Build 1)  -->
  <defs>
    <style>
      .st0 {
        fill: #fff;
        opacity: .1;
      }

      .st1 {
        fill: none;
        stroke: #fff;
        stroke-miterlimit: 10;
        stroke-width: 2px;
      }
    </style>
  </defs>
  <circle class="st0" cx="60.22" cy="60.34" r="56.48"/>
  <circle class="st1" cx="60.22" cy="60.34" r="56.48"/>
  <path class="st1" d="M58.89,80.85c-12.28-4.95-20.92-16.98-20.79-31.04.06-6.76,5.71-12.41,12.65-12.38,1.54,0,2.95.83,3.72,2.18l4.56,7.98c.85,1.48.94,3.28.05,4.76l-3.32,5.56c1.66,3.29,4.31,5.95,7.65,7.66l5.47-3.28c1.49-.89,3.3-.89,4.81-.03l7.99,4.56c1.36.78,2.23,2.21,2.23,3.72.01,7.29-5.95,12.8-12.95,12.71"/>
</svg>