<?xml version="1.0" encoding="UTF-8"?>
<svg id="orinateurs" xmlns="http://www.w3.org/2000/svg" version="1.1" viewBox="0 0 120.43 120.68">
  <!-- Generator: Adobe Illustrator 30.2.1, SVG Export Plug-In . SVG Version: 2.1.1 Build 1)  -->
  <defs>
    <style>
      .st0 {
        stroke: #ccff26;
        stroke-linecap: round;
        stroke-linejoin: round;
      }

      .st0, .st1 {
        fill: none;
        stroke-width: 2px;
      }

      .st2 {
        fill: #191919;
        isolation: isolate;
        opacity: .7;
      }

      .st1 {
        stroke: #fff;
        stroke-miterlimit: 10;
      }
    </style>
  </defs>
  <path class="st2" d="M60.23,3.72C28.95,3.72,3.59,29.07,3.59,60.34c0,11.39,3.37,21.98,9.16,30.85l-5.41,22.61,22.85-5.46c8.71,5.46,18.99,8.62,30.02,8.62,31.27,0,56.62-25.35,56.62-56.62S91.49,3.72,60.23,3.72Z"/>
  <path class="st0" d="M69.65,28.36c14.23,4.08,24.64,17.2,24.64,32.74,0,10.95-5.18,20.7-13.21,26.94-2.07,1.59-5.06.05-5.06-2.55v-32.59c0-1.75-1.41-3.16-3.16-3.16h-25.25c-1.75,0-3.16,1.41-3.16,3.16v32.59c0,2.61-3.02,4.13-5.08,2.52-8.33-6.44-13.57-16.66-13.17-28.09.5-14.86,10.78-27.54,24.61-31.56v-7.1"/>
  <path class="st0" d="M69.07,78.38c-2.69,2.35-5.65,3.66-8.78,3.66s-6.2-1.35-8.92-3.78"/>
  <line class="st0" x1="56.4" y1="61.4" x2="56.4" y2="66.21"/>
  <line class="st0" x1="64.04" y1="61.4" x2="64.04" y2="66.21"/>
  <path class="st1" d="M60.22,3.72C28.95,3.72,3.6,29.07,3.6,60.34c0,11.39,3.37,21.98,9.16,30.85l-5.41,22.61,22.85-5.46c8.71,5.46,18.99,8.62,30.02,8.62,31.27,0,56.62-25.35,56.62-56.62S91.49,3.72,60.22,3.72Z"/>
</svg>