<?xml version="1.0" encoding="UTF-8"?>
<svg id="Calque_2" data-name="Calque 2" xmlns="http://www.w3.org/2000/svg" viewBox="0 0 59.98 59.37">
  <defs>
    <style>
      .cls-1 {
        fill: none;
        stroke: #ccff26;
        stroke-linecap: round;
        stroke-linejoin: round;
        stroke-width: 2px;
      }
    </style>
  </defs>
  <g id="Calque_1-2" data-name="Calque 1">
    <g>
      <path class="cls-1" d="M38.01,7.04c12.11,3.47,20.97,14.64,20.97,27.86,0,9.32-4.4,17.62-11.24,22.92-1.76,1.36-4.3.04-4.3-2.17v-27.73c0-1.49-1.2-2.69-2.69-2.69h-21.49c-1.49,0-2.69,1.2-2.69,2.69v27.73c0,2.22-2.57,3.51-4.33,2.15C5.14,52.32.68,43.62,1.02,33.9c.42-12.65,9.18-23.43,20.94-26.86V1"/>
      <path class="cls-1" d="M37.52,49.61c-2.29,2-4.81,3.11-7.47,3.11s-5.27-1.15-7.59-3.22"/>
      <line class="cls-1" x1="26.73" y1="35.15" x2="26.73" y2="39.25"/>
      <line class="cls-1" x1="33.24" y1="35.15" x2="33.24" y2="39.25"/>
    </g>
  </g>
</svg>