<?xml version="1.0" encoding="UTF-8"?>
<svg id="Calque_2" data-name="Calque 2" xmlns="http://www.w3.org/2000/svg" viewBox="0 0 2558.93 1526.69">
  <defs>
    <style>
      .cls-1, .cls-2 {
        fill: none;
        stroke: #fff;
        stroke-miterlimit: 10;
      }

      .cls-3 {
        fill: #fff;
      }

      .cls-2 {
        stroke-width: 2px;
      }
    </style>
  </defs>
  <g id="Calque_1-2" data-name="Calque 1">
    <g>
      <line class="cls-1" x1="1792.09" y1="982.62" x2="2043.24" y2="333.67"/>
      <g>
        <polygon class="cls-3" points="243.03 654.66 593.98 830.8 242.14 656.45 243.03 654.66 243.03 654.66"/>
        <path class="cls-3" d="M751.4,925.84c.21.24,214.18,105.28,214.19,105.67,0,0,181.03,495.18,181.03,495.18.1,0-182.37-495.77-181.61-494.66,0,0-214.48-104.4-214.48-104.4l.88-1.8h0Z"/>
        <g>
          <path class="cls-3" d="M0,809.86c.43-.4,129.26-122.28,129.65-122.65,0,0,.54.22.54.22l49.69,20.66c-4,2.04,168.32-142.41,166.26-140.43,0,0-24.54-270.52-24.54-270.52.07.12,25.44,270.54,25.49,270.68.09,0-167,141.59-166.99,141.65,0,0-.38.32-.38.32,0,0-.46-.19-.46-.19,0,0-49.76-20.5-49.76-20.5,4.14-1.92-129.03,122.44-128.12,122.23,0,0-1.38-1.45-1.38-1.45h0Z"/>
          <path class="cls-3" d="M30.52,784.26c.47.21,102.62,45.75,103.05,45.94-.06.39,24.61,222.73,23.75,220.8.02.1,211.9,135.26,211.93,135.35.04.09,66.07,172.67,66.11,172.77,0,0-66.68-172.44-66.68-172.44.72.68-212.25-134.66-212.12-134.5-1.01-.12-24.22-220.81-24.7-221.29,0,0,.52.71.52.71,0,0-102.67-45.52-102.67-45.52,0,0,.81-1.83.81-1.83h0Z"/>
          <path class="cls-3" d="M1.39,870.19c-.1.22,215.55,63.51,211.88,63.52,0,0,57.36-45,57.36-45,0,0,.54-.43.54-.43,0,0,.56.39.56.39,0,0,103.64,72.16,103.64,72.16-3.51-.25,1098.39-100.08,1097.37-100.17.2-.07,1085.98,415.4,1086.18,415.43.07,0-1086.98-414.74-1086.1-414.53-.1.01-1098.07,100.89-1098.2,100.9-.25-.17-103.69-72.08-103.96-72.26,0,0,1.11-.03,1.11-.03l-57.33,45.05s-.39.31-.39.31c-.44-.13-212.77-63.28-213.24-63.42,0,0,.57-1.92.57-1.92h0Z"/>
          <path class="cls-3" d="M963.8,1030.89c-.05-.01,64.84-131.89,64.15-129.06,0,0-433.97-896.84-433.97-896.84,0,0,435.42,896.14,435.42,896.14l.17.35-.17.35s-63.81,129.93-63.81,129.93l-1.79-.88h0Z"/>
          <path class="cls-3" d="M214.48,933.68c-.09.07,349.13,276.2,348.24,275.92,0,0,118.75-52.52,118.75-52.52-.06.06-118.62,52.9-118.69,52.95,0,.02-349.5-274.78-349.54-274.79,0,0,1.24-1.57,1.24-1.57h0Z"/>
          <path class="cls-3" d="M446.1,756.39c.07-.06,336.57-362.58,336.92-362.24-.01.06,1260.68-60.82,1260.07-60.64,0,0,360.35-333.51,360.35-333.51-.02.02-360.1,333.97-360.19,333.89.04-.2-1262,62.32-1259.62,61.57-.41-1.25-336.82,367.68-337.53,360.93h0Z"/>
          <polyline class="cls-1" points="1.1 1007.48 146.65 979.21 212.03 798.97 111.35 708.83 1.1 643.47"/>
          <polyline class="cls-2" points=".69 857.87 132.74 830.8 177.58 806.63 212.03 798.97"/>
          <polyline class="cls-1" points="15.97 796.12 48.53 848.5 51.06 886.02 .69 968.74"/>
        </g>
      </g>
    </g>
  </g>
</svg>