<?xml version="1.0" encoding="UTF-8"?>
<svg id="Calque_2" data-name="Calque 2" xmlns="http://www.w3.org/2000/svg" viewBox="0 0 2559.96 1526.69">
  <defs>
    <style>
      .cls-1 {
        stroke-width: 5px;
      }

      .cls-1, .cls-2, .cls-3 {
        fill: none;
        stroke: #fff;
        stroke-miterlimit: 10;
      }

      .cls-2 {
        stroke-width: 4px;
      }

      .cls-4 {
        fill: #fff;
      }

      .cls-3 {
        stroke-width: 2px;
      }
    </style>
  </defs>
  <g id="Calque_1-2" data-name="Calque 1">
    <g>
      <line class="cls-3" x1="1793.12" y1="982.62" x2="2044.27" y2="333.67"/>
      <g>
        <polygon class="cls-4" points="244.73 653.31 595.02 830.8 242.5 657.79 244.73 653.31 244.73 653.31"/>
        <path class="cls-4" d="M753.09,924.49c.53.59,214.1,105.84,214.12,106.8,0,0,180.43,495.4,180.43,495.4.22-.06-183.76-496.83-181.89-494.09,0,0-214.86-103.62-214.86-103.62,0,0,2.2-4.49,2.2-4.49h0Z"/>
        <g>
          <path class="cls-4" d="M0,808.77s129.33-122.14,129.33-122.14l1.06-1,1.34.56,49.64,20.77-2.09.33,167.59-140.56c-.67,5.03-24.09-270.57-24.26-269.59,0,0,26.17,270.37,26.17,270.37,0,0,.06.6.06.6,0,0-.47.4-.47.4,0,0-166.47,141.89-166.47,141.89,0,0-.94.8-.94.8,0,0-1.15-.47-1.15-.47l-49.81-20.38,2.4-.44L3.44,812.4S0,808.77,0,808.77h0Z"/>
          <path class="cls-4" d="M32.16,782.89s102.51,45.89,102.51,45.89c0,0,1.16.52,1.16.52l.14,1.26,23.74,220.84s-.8-1.29-.8-1.29c.17.19,211.6,135.74,211.77,135.91.09.23,65.61,172.85,65.71,173.1,0,0-67.13-172.26-67.13-172.26,1.61,1.78-213-134.61-212.93-134.23-.46-.52-24.39-220.92-24.75-221.59,0,0,1.3,1.78,1.3,1.78,0,0-102.75-45.36-102.75-45.36,0,0,2.03-4.57,2.03-4.57h0Z"/>
          <path class="cls-4" d="M2.84,868.75s212.73,63.41,212.73,63.41c0,0-2.17.41-2.17.41,0,0,57.39-44.97,57.39-44.97,0,0,1.36-1.06,1.36-1.06,0,0,1.41.98,1.41.98,0,0,103.6,72.22,103.6,72.22-7.96-.75,1098.51-99.45,1096.56-99.76.5-.17,1085.73,416.04,1086.25,416.11,0,0-1086.55-413.92-1086.55-413.92,1.95.17-1098.07,101.53-1098.11,101.66,0,0-.67-.46-.67-.46,0,0-103.74-72.02-103.74-72.02l2.77-.08s-57.3,45.08-57.3,45.08c0,0-.97.77-.97.77l-1.19-.35S1.42,873.54,1.42,873.54l1.43-4.79h0Z"/>
          <polygon class="cls-4" points="963.48 1030.23 1027.9 900.59 1027.89 902.37 595.02 4.99 1031.52 900.61 1031.95 901.49 1031.52 902.38 967.97 1032.44 963.48 1030.23 963.48 1030.23"/>
          <path class="cls-4" d="M216.44,932.5c-.17.2,349.36,277.5,347.19,276.81,0,0,118.87-52.23,118.87-52.23,0,0-118.45,53.19-118.45,53.19,0,0-.29.13-.29.13,0,0-.25-.2-.25-.2,0,0-350.17-273.78-350.17-273.78,0,0,3.1-3.93,3.1-3.93h0Z"/>
          <path class="cls-4" d="M446.03,755.37c1.34-.63,336.23-362.9,337.96-362.39-.07.15,1261.47-60.17,1259.91-59.71C2043.9,333.27,2404.46,0,2404.46,0c-.03.03-359.98,334.42-360.17,334.22-.11-.49-1264.63,63.9-1258.78,62.04,0,0-335.82,362.52-335.82,362.52l-3.66-3.4h0Z"/>
          <polyline class="cls-2" points="2.13 1007.48 147.68 979.21 213.07 798.97 112.38 708.83 2.13 643.47"/>
          <polyline class="cls-1" points="1.72 857.87 133.77 830.8 178.61 806.63 213.07 798.97"/>
          <polyline class="cls-2" points="17 796.12 49.56 848.5 52.09 886.02 1.72 968.74"/>
        </g>
      </g>
    </g>
  </g>
</svg>