<?xml version="1.0" encoding="UTF-8"?>
<svg id="signature-wrench-phone" xmlns="http://www.w3.org/2000/svg" version="1.1" viewBox="0 0 263.1 666.63">
  <!-- Generator: Adobe Illustrator 30.2.1, SVG Export Plug-In . SVG Version: 2.1.1 Build 1)  -->
  <defs>
    <style>
      .st0 {
        stroke: #fff;
      }

      .st0, .st1 {
        fill: none;
        stroke-linecap: round;
        stroke-linejoin: round;
        stroke-width: 2px;
      }

      .st1 {
        stroke: #cf3;
      }
    </style>
  </defs>
  <g id="wrench-bottom">
    <path class="st1" d="M44.52,513.34c-48.1-48.1-48.1-126.1,0-174.21.37-.37.75-.74,1.12-1.11,10.78-10.51,28.98-2.51,28.98,12.54v72.89c0,9.49,7.69,17.18,17.18,17.18h79.58c9.49,0,17.18-7.69,17.18-17.18v-72.88c0-15.35,18.48-22.89,29.41-12.12,2.93,2.89,5.75,5.95,8.45,9.17,37.32,44.68,37.67,111.01.89,156.14-18.6,22.82-43.22,37.08-69.34,42.77h-.43v114.14"/>
    <line class="st1" x1="106.01" y1="418.1" x2="157.08" y2="418.1"/>
  </g>
  <g id="wrench-top">
    <path class="st0" d="M218.57,153.29c48.1,48.1,48.1,126.1,0,174.21-.37.37-.75.74-1.12,1.11-10.78,10.51-28.98,2.51-28.98-12.54v-72.89c0-9.49-7.69-17.18-17.18-17.18h-79.58c-9.49,0-17.18,7.69-17.18,17.18v72.88c0,15.35-18.48,22.89-29.41,12.12-2.93-2.89-5.75-5.95-8.45-9.17C-.64,274.32-.99,208,35.79,162.87c18.6-22.82,43.22-37.08,69.34-42.77h.43V5.96"/>
    <line class="st0" x1="109.86" y1="248.21" x2="135.83" y2="248.21"/>
    <line class="st0" x1="155.73" y1="248.21" x2="155.73" y2="248.21"/>
  </g>
</svg>